<svg xmlns="http://www.w3.org/2000/svg" viewBox="0 0 900 680"><rect width="900" height="680" fill="#e6d7aa"/><path fill="#8eaa72" d="M0 390Q140 300 280 395T570 350T900 370V680H0Z"/><path fill="#638765" d="M0 500Q150 410 330 500T630 440T900 470V680H0Z"/><g fill="#f7eee0"><circle cx="170" cy="340" r="28"/><circle cx="225" cy="395" r="20"/><circle cx="525" cy="315" r="26"/><circle cx="680" cy="400" r="34"/></g><g fill="#d97c72"><circle cx="140" cy="370" r="16"/><circle cx="475" cy="365" r="18"/><circle cx="740" cy="350" r="19"/></g><path stroke="#ede4c7" stroke-width="90" fill="none" d="M400 680Q370 520 500 390Q585 300 560 0"/><path stroke="#d5ad61" stroke-width="16" opacity=".45" fill="none" d="M400 680Q370 520 500 390Q585 300 560 0"/></svg>
